<svg width="225" height="241" viewBox="0 0 225 241" fill="none" xmlns="http://www.w3.org/2000/svg">
<path d="M212.61 1H12.3898C6.09938 1 1 7.08705 1 14.5958V226.404C1 233.913 6.09938 240 12.3898 240H212.61C218.901 240 224 233.913 224 226.404V14.5958C224 7.08705 218.901 1 212.61 1Z" stroke="white"/>
<path fill-rule="evenodd" clip-rule="evenodd" d="M83.5423 81.3571C83.5423 73.5711 86.6459 66.104 92.1703 60.5985C97.6947 55.093 105.187 52 113 52C120.813 52 128.305 55.093 133.83 60.5985C139.354 66.104 142.458 73.5711 142.458 81.3571C142.458 89.1431 139.354 96.6102 133.83 102.116C128.305 107.621 120.813 110.714 113 110.714C105.187 110.714 97.6947 107.621 92.1703 102.116C86.6459 96.6102 83.5423 89.1431 83.5423 81.3571ZM59.0008 173.375C59.2215 159.248 65.0078 145.774 75.1106 135.861C85.2134 125.948 98.8224 120.392 113 120.392C127.178 120.392 140.787 125.948 150.889 135.861C160.992 145.774 166.778 159.248 166.999 173.375C167.016 174.326 166.755 175.262 166.247 176.067C165.739 176.872 165.006 177.513 164.139 177.909C148.095 185.24 130.649 189.024 113 189C94.7624 189 77.4348 185.033 61.8615 177.909C60.994 177.513 60.2614 176.872 59.7533 176.067C59.2453 175.262 58.9838 174.326 59.0008 173.375Z" fill="white"/>
</svg>
