<svg width="354" height="150" viewBox="0 0 354 150" fill="none" xmlns="http://www.w3.org/2000/svg">
<path d="M117.162 43.3446C120.871 43.3446 120.871 44.8857 117.162 47.9731L51.879 99.2939L100.408 90.4963C102.883 90.4963 99.1582 96.3035 98.204 99.1714L90.3505 121.64C89.585 123.625 88.9216 124.855 88.3501 125.36C87.7786 125.855 86.6865 126.1 85.0638 126.1H2.67083C0.0989184 126.1 -0.615499 124.61 0.527571 121.64L8.38108 99.1714C8.95261 97.6303 9.43229 96.5893 9.80991 96.033C10.1875 95.487 11.0959 94.6042 12.5247 93.3897L95.0809 40.1808C96.4128 38.9714 117.162 43.3446 117.162 43.3446ZM12.2134 97.7017C8.50355 97.7017 8.50355 96.1606 12.2134 93.0733L77.496 41.7525C77.496 41.7525 30.2168 44.7327 31.171 41.8648L39.0246 19.3963C39.79 17.4112 40.4534 16.1814 41.0249 15.6762C41.5965 15.1812 42.6885 14.9363 44.3113 14.9363H126.704C129.276 14.9363 129.991 16.4263 128.847 19.3963L120.994 41.8648C120.422 43.4059 119.943 44.4469 119.565 45.0031C119.187 45.5491 118.279 46.432 116.85 47.6465L34.2941 100.855C32.9622 102.065 12.2134 97.6915 12.2134 97.6915V97.7017Z" fill="#FFB800"/>
<path d="M150.413 33.6692V19.1562H156.153C157.506 19.1562 158.501 19.2481 159.144 19.4318C160.022 19.6819 160.726 20.1462 161.246 20.8249C161.767 21.5036 162.032 22.3405 162.032 23.3305C162.032 24.6369 161.603 25.7034 160.751 26.5301C159.899 27.3568 158.424 27.765 156.327 27.765H152.423V33.6641H150.407L150.413 33.6692ZM152.428 26.0555H156.368C157.608 26.0555 158.516 25.8361 159.093 25.3972C159.669 24.9584 159.955 24.295 159.955 23.4121C159.955 22.8355 159.812 22.3456 159.532 21.9374C159.251 21.5291 158.904 21.2485 158.506 21.0954C158.108 20.9423 157.378 20.8658 156.332 20.8658H152.428V26.0504V26.0555Z" fill="white"/>
<path d="M182.245 33.6692V19.1562H188.997C190.405 19.1562 191.446 19.2889 192.12 19.5645C192.793 19.835 193.344 20.284 193.773 20.9168C194.207 21.5445 194.421 22.2793 194.421 23.106C194.421 24.2031 194.054 25.0859 193.324 25.7646C192.594 26.4433 191.533 26.8771 190.135 27.0608C190.701 27.3262 191.13 27.5966 191.426 27.8671C192.028 28.4233 192.553 29.0408 193.008 29.7195L195.666 33.6692H193.13L191.099 30.6533C190.313 29.4745 189.716 28.6784 189.318 28.2702C188.92 27.862 188.527 27.5864 188.155 27.4435C187.777 27.3006 187.251 27.2292 186.578 27.2292H184.251V33.6743H182.235L182.245 33.6692ZM184.261 25.5605H188.593C189.538 25.5605 190.257 25.4738 190.747 25.2952C191.237 25.1165 191.625 24.8359 191.91 24.4532C192.196 24.0704 192.344 23.6265 192.344 23.1162C192.344 22.3813 192.069 21.8098 191.523 21.3863C190.971 20.9678 190.16 20.7586 189.078 20.7586H184.261V25.5605Z" fill="white"/>
<path d="M214.69 26.6017C214.69 24.1267 215.389 22.2233 216.782 20.8965C218.175 19.5646 219.91 18.9012 221.987 18.9012C223.329 18.9012 224.554 19.1972 225.661 19.7943C226.769 20.3862 227.641 21.2486 228.289 22.3815C228.938 23.5144 229.259 24.8616 229.259 26.4231C229.259 28.5765 228.636 30.3269 227.386 31.6791C226.008 33.1692 224.207 33.9143 221.977 33.9143C219.747 33.9143 217.925 33.1488 216.553 31.6179C215.313 30.2299 214.69 28.5612 214.69 26.6017ZM216.767 26.6272C216.767 28.4183 217.272 29.8064 218.282 30.7912C219.293 31.7761 220.518 32.2711 221.962 32.2711C223.406 32.2711 224.682 31.771 225.682 30.7759C226.682 29.7808 227.182 28.3112 227.182 26.3771C227.182 25.1269 226.927 24.0144 226.412 23.0296C226.014 22.2743 225.416 21.6722 224.62 21.2231C223.824 20.7689 222.952 20.5444 222.003 20.5444C220.482 20.5444 219.232 21.0394 218.247 22.0294C217.262 23.0194 216.772 24.5503 216.772 26.6272H216.767Z" fill="white"/>
<path d="M248.385 29.551L250.197 29.3112C250.248 30.4186 250.467 31.1789 250.855 31.5872C251.243 31.9954 251.778 32.1995 252.462 32.1995C252.942 32.1995 253.371 32.0974 253.738 31.8882C254.105 31.679 254.35 31.4187 254.478 31.1024C254.657 30.6737 254.743 30.0256 254.743 29.153V19.1562H256.759V29.0459C256.759 30.8268 256.386 32.0821 255.636 32.817C254.886 33.5518 253.835 33.9141 252.472 33.9141C251.11 33.9141 250.156 33.5824 249.508 32.9241C248.757 32.174 248.38 31.0462 248.38 29.551H248.385Z" fill="white"/>
<path d="M277.788 33.6692V19.1562H288.795V20.8709H279.799V25.3054H288.224V27.02H279.799V31.9597H289.148V33.6743H277.783L277.788 33.6692Z" fill="white"/>
<path d="M313.489 33.6692V20.8709H308.473V19.1562H320.547V20.8709H315.505V33.6692H313.489Z" fill="white"/>
<path d="M339.295 26.6017C339.295 24.1267 339.994 22.2233 341.387 20.8965C342.78 19.5646 344.515 18.9012 346.592 18.9012C347.934 18.9012 349.159 19.1972 350.266 19.7943C351.373 20.3862 352.246 21.2486 352.894 22.3815C353.542 23.5144 353.864 24.8616 353.864 26.4231C353.864 28.5765 353.241 30.3269 351.991 31.6791C350.613 33.1692 348.812 33.9143 346.582 33.9143C344.352 33.9143 342.53 33.1488 341.157 31.6179C339.917 30.2299 339.295 28.5612 339.295 26.6017ZM341.372 26.6272C341.372 28.4183 341.877 29.8064 342.887 30.7912C343.898 31.7761 345.122 32.2711 346.566 32.2711C348.011 32.2711 349.286 31.771 350.287 30.7759C351.287 29.7808 351.787 28.3112 351.787 26.3771C351.787 25.1269 351.532 24.0144 351.016 23.0296C350.618 22.2743 350.021 21.6722 349.225 21.2231C348.429 20.7689 347.556 20.5444 346.607 20.5444C345.087 20.5444 343.836 21.0394 342.851 22.0294C341.867 23.0194 341.377 24.5503 341.377 26.6272H341.372Z" fill="white"/>
<path d="M174.285 105.121C176.239 105.121 176.974 106.081 176.464 108.005L172.146 123.104C171.493 125.105 170.223 126.1 168.34 126.1H95.4229C93.3868 126.1 92.6928 125.105 93.3409 123.104L114.442 49.1823C115.095 47.182 116.366 46.1869 118.249 46.1869H191.165C193.201 46.1869 193.895 47.182 193.247 49.1823L188.93 64.2821C188.42 66.2059 187.185 67.1653 185.22 67.1653H146.631C145.805 67.1653 145.32 67.5378 145.187 68.2778L134.884 104.019C134.752 104.759 135.027 105.132 135.706 105.132H174.295L174.285 105.121ZM140.59 80.1524C141.243 78.152 139.865 77.157 141.753 77.157H171.146C173.182 77.157 173.876 78.152 173.218 80.1524L169.871 92.1394C169.217 94.1397 167.947 95.1348 162.538 95.1348H135.788C137.278 95.1348 136.579 94.1397 137.242 92.1394L140.59 80.1524Z" fill="white"/>
<path d="M182.51 107.341L199.151 49.1773C199.804 47.177 201.075 46.1819 202.958 46.1819H220.834C222.87 46.1819 223.564 47.177 222.906 49.1773L207.316 104.009C207.183 104.749 207.459 105.121 208.138 105.121H235.291C236.117 105.121 236.602 104.749 236.735 104.009L252.442 49.1773C253.095 47.177 254.366 46.1819 256.249 46.1819H274.007C276.125 46.1819 276.844 47.177 276.191 49.1773L259.55 107.341C257.56 114.297 254.764 119.16 251.151 121.936C247.538 124.712 242.154 126.095 234.984 126.095H196.293C190.935 126.095 186.914 124.278 184.235 120.655C181.556 117.032 180.974 112.592 182.5 107.336H182.51V107.341Z" fill="white"/>
<path d="M289.138 105.341C288.801 106.3 289.138 106.785 290.117 106.785H317.158C318.215 106.785 318.868 106.31 319.123 105.341L321.628 96.4667C321.965 95.5074 321.593 95.0226 320.547 95.0226H288.413C283.213 95.0226 279.325 93.2671 276.768 89.7512C274.211 86.2352 273.63 81.9232 275.023 76.8202L278.656 64.3944C280.544 57.8115 283.285 53.1321 286.897 50.3561C290.51 47.5801 295.669 46.1971 302.385 46.1971H338.479C343.689 46.1971 347.567 47.9526 350.124 51.4685C352.68 54.9845 353.481 61.8684 352.088 66.9714L328.88 66.9459C329.217 65.9865 328.88 65.5018 327.9 65.5018H301.987C300.931 65.5018 300.278 65.9865 300.022 66.9459L297.517 75.82C297.18 76.7794 297.542 77.2642 298.599 77.2642H330.732C335.932 77.2642 339.821 79.0247 342.377 82.5356C344.934 86.0515 345.516 90.3635 344.122 95.4665L340.489 107.892C338.535 114.475 335.748 119.155 332.136 121.931C328.533 124.707 323.399 126.09 316.765 126.09H279.544C274.344 126.09 270.44 124.334 267.848 120.818C265.256 117.302 264.587 110.638 266.057 105.525L289.138 105.331V105.341Z" fill="white"/>
<path d="M80.0982 147.18L145.661 59.3884C146.641 58.0769 145.651 56.2143 144.013 56.296L123.229 57.3013C121.723 57.3727 120.718 55.7755 121.432 54.4538L147.325 6.04171C148.825 3.24017 145.131 0.566191 142.947 2.87785L53.3279 97.1506C52.639 97.8752 53.2412 99.0642 54.2363 98.9417L95.545 93.6958C96.3462 93.5887 96.9636 94.3898 96.6625 95.14L76.7251 145.328C75.8883 147.435 78.7255 149.022 80.0829 147.206L80.0931 147.191L80.0982 147.18Z" fill="#1D1D1B" stroke="#FFB800" stroke-width="3" stroke-miterlimit="10"/>
</svg>
