<?xml version="1.0" encoding="UTF-8"?>
<svg id="Camada_1" data-name="Camada 1" xmlns="http://www.w3.org/2000/svg" viewBox="0 0 184.7 174.58">
  <defs>
    <style>
      .cls-1 {
        fill: #f6f6f6;
      }

      .cls-2 {
        fill: #1d1d1b;
        stroke: #ffed00;
        stroke-miterlimit: 10;
        stroke-width: 3px;
      }

      .cls-3 {
        fill: #ffed00;
      }
    </style>
  </defs>
  <circle class="cls-3" cx="97.41" cy="87.29" r="87.29"/>
  <path class="cls-1" d="m132.93,51.4c4.21,0,4.21,1.75,0,5.25l-74.07,58.23,55.06-9.98c2.81,0-1.42,6.59-2.5,9.84l-8.91,25.49c-.87,2.25-1.62,3.65-2.27,4.22-.65.56-1.89.84-3.73.84H3.03c-2.92,0-3.73-1.69-2.43-5.06l8.91-25.49c.65-1.75,1.19-2.93,1.62-3.56.43-.62,1.46-1.62,3.08-3l93.67-60.37c1.51-1.37,25.05,3.59,25.05,3.59ZM13.86,113.07c-4.21,0-4.21-1.75,0-5.25l74.07-58.23s-53.64,3.38-52.56.13l8.91-25.49c.87-2.25,1.62-3.65,2.27-4.22.65-.56,1.89-.84,3.73-.84h93.48c2.92,0,3.73,1.69,2.43,5.06l-8.91,25.49c-.65,1.75-1.19,2.93-1.62,3.56-.43.62-1.46,1.62-3.08,3l-93.67,60.37c-1.51,1.37-25.05-3.59-25.05-3.59Z"/>
  <path class="cls-2" d="m90.88,169.21l74.39-99.61c1.11-1.49-.01-3.6-1.87-3.51l-23.58,1.14c-1.71.08-2.85-1.73-2.04-3.23l29.38-54.93c1.7-3.18-2.49-6.21-4.97-3.59L60.51,112.42c-.78.82-.1,2.17,1.03,2.03l46.87-5.95c.91-.12,1.61.79,1.27,1.64l-22.62,56.94c-.95,2.39,2.27,4.19,3.81,2.13Z"/>
</svg>